<svg xmlns="http://www.w3.org/2000/svg" xmlns:xlink="http://www.w3.org/1999/xlink" width="40" height="40" viewBox="0 0 40 40">
  <defs>
    <circle id="编组-19-b" cx="16" cy="16" r="16"/>
    <filter id="编组-19-a" width="137.5%" height="137.5%" x="-18.8%" y="-18.8%" filterUnits="objectBoundingBox">
      <feOffset in="SourceAlpha" result="shadowOffsetOuter1"/>
      <feGaussianBlur in="shadowOffsetOuter1" result="shadowBlurOuter1" stdDeviation="2"/>
      <feComposite in="shadowBlurOuter1" in2="SourceAlpha" operator="out" result="shadowBlurOuter1"/>
      <feColorMatrix in="shadowBlurOuter1" values="0 0 0 0 0.176470588   0 0 0 0 0.596078431   0 0 0 0 1  0 0 0 1 0"/>
    </filter>
  </defs>
  <g fill="none" fill-rule="evenodd" transform="translate(4 4)">
    <use fill="#000" filter="url(#编组-19-a)" xlink:href="#编组-19-b"/>
    <circle cx="16" cy="16" r="15.5" fill="#FFF" stroke="#2D98FF" stroke-linejoin="square"/>
    <path fill="#2D98FF" d="M5.99855638,15.7896432 C5.99691146,19.2999814 7.90261228,22.5420271 10.9991682,24.2982531 L9.99900181,26 C6.28746558,23.8949851 4.00012451,20.0053812 4,15.7906506 L5.99855638,15.7896432 Z M28,15.7883861 C28.0001245,20.0031166 25.7147444,23.8916084 21.9990018,25.9988677 L21.0006118,24.2981283 C24.0944818,22.5415597 25.9997987,19.2997318 26.0014436,15.7893936 L28,15.7883861 Z M21.8292184,15.8339049 L23.8321056,15.8353537 C23.8330221,18.6437559 22.3077684,21.23892 19.8314402,22.6423415 L18.8287193,20.9391457 C20.683175,19.8864151 21.8283655,17.9379149 21.8292184,15.8339049 Z M7.82633119,15.8335884 L9.82921842,15.8350372 C9.82836546,17.9390471 10.9707858,19.8859763 12.8287193,20.9397119 L11.828553,22.6414588 C9.35130824,21.236478 7.82724767,18.6419906 7.82633119,15.8335884 Z M19.9616076,15.8666937 C19.9615895,17.2952337 19.1998645,18.6158873 17.9626854,19.330173 L15.9626854,15.8660714 L19.9616076,15.8666937 Z M11.9637631,15.8654492 L15.9626854,15.8660714 L13.9637631,19.3295508 C12.7266021,18.6152965 11.963745,17.2939892 11.9637631,15.8654492 Z M17.9616076,12.402592 L15.9626854,15.8660714 L13.9626854,12.4019698 C15.1998645,11.6876841 16.7244466,11.6883378 17.9616076,12.402592 Z M19.8298839,9.02748328 L18.8297175,10.7292302 C16.971784,9.67549463 14.6841732,9.67706574 12.8297175,10.7297964 L11.8269966,9.02660062 C14.3033249,7.62317918 17.3526392,7.62250249 19.8298839,9.02748328 Z M22.0009982,5.57903672 L21.0008318,7.28078366 C17.9042759,5.52455767 14.0932582,5.52433994 10.9993882,7.28090846 L10.0009982,5.58016898 C13.7167408,3.47290964 18.289462,3.47402179 22.0009982,5.57903672 Z"/>
  </g>
</svg>
